<?xml version="1.0" encoding="UTF-8"?>
<svg xmlns="http://www.w3.org/2000/svg" viewBox="0 0 1200 600" width="1200" height="600" role="img" aria-label="Stylized world map (dotted)">
  <defs>
    <linearGradient id="ocean" x1="0" y1="0" x2="1" y2="1">
      <stop offset="0%" stop-color="#fafaf9"/>
      <stop offset="100%" stop-color="#f5f5f4"/>
    </linearGradient>
    <!-- Dotted pattern for land masses -->
    <pattern id="dots" x="0" y="0" width="16" height="16" patternUnits="userSpaceOnUse">
      <circle cx="8" cy="8" r="4.2" fill="#34d399"/>
    </pattern>
    <linearGradient id="landShade" x1="0" y1="0" x2="1" y2="1">
      <stop offset="0%" stop-color="#3b82f6"/>
      <stop offset="100%" stop-color="#2563eb"/>
    </linearGradient>
  </defs>
  <rect width="1200" height="600" fill="url(#ocean)"/>
  <!-- Simplified land shapes filled with dot pattern and shaded stroke -->
  <g>
    <!-- Americas -->
    <path d="M210,160c60,-40 160,-30 210,10c80,60 40,150 -20,190c-50,35 -120,30 -170,0c-60,-35 -70,-120 -20,-170z" fill="url(#dots)" stroke="url(#landShade)" stroke-opacity="0.25"/>
    <ellipse cx="350" cy="380" rx="120" ry="70" fill="url(#dots)" stroke="url(#landShade)" stroke-opacity="0.25"/>
    <!-- Europe/Africa/ME -->
    <path d="M620,150c90,-20 170,10 230,50c70,50 60,120 -20,140c-70,20 -120,10 -170,-10c-70,-30 -120,-120 -40,-180z" fill="url(#dots)" stroke="url(#landShade)" stroke-opacity="0.25"/>
    <ellipse cx="720" cy="360" rx="140" ry="90" fill="url(#dots)" stroke="url(#landShade)" stroke-opacity="0.25"/>
    <!-- Asia -->
    <path d="M890,190c110,-20 180,10 230,50c40,30 30,80 -40,100c-80,20 -160,10 -220,-20c-60,-30 -50,-100 30,-130z" fill="url(#dots)" stroke="url(#landShade)" stroke-opacity="0.25"/>
    <!-- Australia -->
    <ellipse cx="990" cy="470" rx="80" ry="45" fill="url(#dots)" stroke="url(#landShade)" stroke-opacity="0.25"/>
  </g>
</svg>
